<?xml version="1.0" encoding="UTF-8" standalone="no"?>
<svg
   id="Layer_1"
   data-name="Layer 1"
   viewBox="0 0 521.44879 521.44879"
   width="521.44879"
   height="521.44879"
   version="1.1"
   sodipodi:docname="account.svg"
   inkscape:version="1.2.2 (732a01da63, 2022-12-09)"
   inkscape:export-filename="account.png"
   inkscape:export-xdpi="5.5486112"
   inkscape:export-ydpi="5.5486112"
   xmlns:inkscape="http://www.inkscape.org/namespaces/inkscape"
   xmlns:sodipodi="http://sodipodi.sourceforge.net/DTD/sodipodi-0.dtd"
   xmlns="http://www.w3.org/2000/svg"
   xmlns:svg="http://www.w3.org/2000/svg">
  <defs
     id="defs144" />
  <sodipodi:namedview
     id="namedview142"
     pagecolor="#ffffff"
     bordercolor="#000000"
     borderopacity="0.25"
     inkscape:showpageshadow="2"
     inkscape:pageopacity="0.0"
     inkscape:pagecheckerboard="0"
     inkscape:deskcolor="#d1d1d1"
     showgrid="false"
     inkscape:zoom="1.5136719"
     inkscape:cx="261.28516"
     inkscape:cy="261.28516"
     inkscape:window-width="1920"
     inkscape:window-height="991"
     inkscape:window-x="-9"
     inkscape:window-y="-9"
     inkscape:window-maximized="1"
     inkscape:current-layer="Layer_1" />
  <path
     d="m 509.55541,209.34241 -52.786,-5.518 a 202.985,202.985 0 0 0 -17.2,-41.474 l 33.438,-41.245 a 8,8 0 0 0 -0.558,-10.694 l -61.412,-61.412 a 8,8 0 0 0 -10.695,-0.558 l -41.245,33.438 a 202.948,202.948 0 0 0 -41.474,-17.2 l -5.518,-52.787 a 8,8 0 0 0 -7.957,-7.1680004 h -86.849 a 8,8 0 0 0 -7.957,7.1680004 l -5.518,52.787 a 202.975,202.975 0 0 0 -41.474,17.2 l -41.245,-33.438 a 8,8 0 0 0 -10.694,0.558 l -61.412,61.412 a 8,8 0 0 0 -0.558,10.7 l 33.438,41.245 a 203,203 0 0 0 -17.2,41.474 l -52.787,5.513 a 8,8 0 0 0 -7.1680004,7.956 v 86.85 a 8,8 0 0 0 7.1690004,7.957 l 52.786,5.518 a 202.985,202.985 0 0 0 17.2,41.474 l -33.438,41.245 a 8,8 0 0 0 0.558,10.694 l 61.412,61.412 a 8,8 0 0 0 10.7,0.558 l 41.245,-33.438 a 202.948,202.948 0 0 0 41.474,17.2 l 5.518,52.786 a 8,8 0 0 0 7.952,7.169 h 86.849 a 8,8 0 0 0 7.957,-7.168 l 5.518,-52.786 a 202.944,202.944 0 0 0 41.474,-17.2 l 41.245,33.437 a 8,8 0 0 0 10.694,-0.557 l 61.412,-61.412 a 8,8 0 0 0 0.558,-10.695 l -33.438,-41.245 a 203.014,203.014 0 0 0 17.2,-41.474 l 52.786,-5.518 a 8,8 0 0 0 7.169,-7.957 v -86.85 a 8,8 0 0 0 -7.169,-7.957 z m -59.881,92.936 a 8,8 0 0 0 -6.91,5.942 187.022,187.022 0 0 1 -19.748,47.618 8,8 0 0 0 0.683,9.09 l 32.34,39.892 -51.215,51.219 -39.891,-32.34 a 8,8 0 0 0 -9.091,-0.684 186.905,186.905 0 0 1 -47.618,19.748 8,8 0 0 0 -5.942,6.911 l -5.34,51.05 h -72.435 l -5.337,-51.05 a 8,8 0 0 0 -5.943,-6.911 186.953,186.953 0 0 1 -47.617,-19.748 8,8 0 0 0 -9.09,0.684 l -39.896,32.341 -51.215,-51.216 32.34,-39.891 a 8,8 0 0 0 0.683,-9.091 187.022,187.022 0 0 1 -19.748,-47.618 8,8 0 0 0 -6.909,-5.942 l -51.051,-5.34 v -72.435 l 51.051,-5.337 a 8,8 0 0 0 6.91,-5.943 186.95,186.95 0 0 1 19.747,-47.617 8,8 0 0 0 -0.683,-9.09 l -32.34,-39.896 51.215,-51.215 39.891,32.34 a 8,8 0 0 0 9.091,0.684 187,187 0 0 1 47.618,-19.749 8,8 0 0 0 5.941,-6.91 l 5.341,-51.05 h 72.435 l 5.337,51.05 a 8,8 0 0 0 5.943,6.911 186.953,186.953 0 0 1 47.617,19.748 8,8 0 0 0 9.09,-0.684 l 39.896,-32.341 51.219,51.22 -32.34,39.891 a 8,8 0 0 0 -0.683,9.091 187,187 0 0 1 19.748,47.619 8,8 0 0 0 6.91,5.941 l 51.046,5.336 v 72.435 z m -188.95,-170.554 a 129,129 0 1 0 129,129 129.146,129.146 0 0 0 -129,-129 z m -75.976,212.576 a 78.845,78.845 0 0 1 151.964,-0.011 112.8,112.8 0 0 1 -151.964,0.011 z m 164.382,-13.276 a 94.859,94.859 0 0 0 -176.836,-0.03 113,113 0 1 1 176.836,0.03 z m -88.406,-157.2 a 41.945,41.945 0 1 0 41.944,41.944 41.992,41.992 0 0 0 -41.944,-41.944 z m 0,67.889 a 25.945,25.945 0 1 1 25.944,-25.945 25.974,25.974 0 0 1 -25.944,25.947 z"
     id="path139"
     style="fill:#ffffff;fill-opacity:1;stroke:#ffffff;stroke-width:9.44882;stroke-dasharray:none;stroke-opacity:1" />
</svg>
