<?xml version="1.0" encoding="UTF-8" standalone="no"?>
<svg
   id="Icons"
   viewBox="0 0 60 60"
   width="512"
   height="512"
   version="1.1"
   sodipodi:docname="esemenyek.svg"
   inkscape:export-filename="esemenyek.png"
   inkscape:export-xdpi="10.3125"
   inkscape:export-ydpi="10.3125"
   inkscape:version="1.2.2 (732a01da63, 2022-12-09)"
   xmlns:inkscape="http://www.inkscape.org/namespaces/inkscape"
   xmlns:sodipodi="http://sodipodi.sourceforge.net/DTD/sodipodi-0.dtd"
   xmlns="http://www.w3.org/2000/svg"
   xmlns:svg="http://www.w3.org/2000/svg">
  <defs
     id="defs2588" />
  <sodipodi:namedview
     id="namedview2586"
     pagecolor="#ffffff"
     bordercolor="#000000"
     borderopacity="0.25"
     inkscape:showpageshadow="2"
     inkscape:pageopacity="0.0"
     inkscape:pagecheckerboard="0"
     inkscape:deskcolor="#d1d1d1"
     showgrid="false"
     inkscape:zoom="1.1103786"
     inkscape:cx="103.11798"
     inkscape:cy="252.61654"
     inkscape:window-width="1920"
     inkscape:window-height="991"
     inkscape:window-x="-9"
     inkscape:window-y="-9"
     inkscape:window-maximized="1"
     inkscape:current-layer="Icons" />
  <path
     d="M9,56v2H21V52c0-.288.017-.573.043-.854-.031-.033-.059-.068-.091-.1A7,7,0,0,0,9,56Z"
     id="path2567"
     style="fill:#12274f;fill-opacity:1" />
  <path
     d="M51,58V56a6.991,6.991,0,0,0-12.043-4.842c.026.277.043.558.043.842v6Z"
     id="path2569"
     style="fill:#12274f;fill-opacity:1" />
  <path
     d="M23,52v6H37l0-6a7,7,0,0,0-14,0Z"
     id="path2571"
     style="fill:#12274f;fill-opacity:1" />
  <path
     d="M55,6a2,2,0,0,0-2-2H49V2a1,1,0,0,0-2,0V4H40V2a1,1,0,0,0-2,0V4H31V2a1,1,0,0,0-2,0V4H22V2a1,1,0,0,0-2,0V4H13V2a1,1,0,0,0-2,0V4H7A2,2,0,0,0,5,6V8H55Z"
     id="path2573"
     style="fill:#12274f;fill-opacity:1" />
  <path
     d="M25.454,23.184a1.008,1.008,0,0,1,.232.689L25.5,27.905c.066.092.112.11.171.09l4-1.431a.992.992,0,0,1,.674,0l4,1.431a.145.145,0,0,0,.132-.018l-.153-4.1a1,1,0,0,1,.233-.689l2.376-2.839a.3.3,0,0,0,.061-.3.343.343,0,0,0-.255-.232l-3.7-.974a1,1,0,0,1-.567-.4l-2.346-3.387h0a.133.133,0,0,0-.232,0l-2.345,3.388a1.006,1.006,0,0,1-.568.4l-3.7.974a.343.343,0,0,0-.255.231.3.3,0,0,0,.061.3Z"
     id="path2575"
     style="fill:#12274f;fill-opacity:1" />
  <circle
     cx="16"
     cy="43"
     r="4"
     id="circle2577"
     style="fill:#12274f;fill-opacity:1" />
  <path
     d="M7,39h4.54a5.973,5.973,0,0,1,8.92,0H24a6,6,0,0,1,12,0h3.54a5.973,5.973,0,0,1,8.92,0H53a2,2,0,0,0,2-2V10H5V37A2,2,0,0,0,7,39ZM21.11,19.438a2.345,2.345,0,0,1,1.652-1.56L26.1,17l2.136-3.084a2.148,2.148,0,0,1,3.521,0L33.9,17l3.342.879a2.345,2.345,0,0,1,1.652,1.56,2.3,2.3,0,0,1-.434,2.19l-2.125,2.54L36.5,27.81a2.081,2.081,0,0,1-.847,1.774,2.139,2.139,0,0,1-1.995.293L30,28.567l-3.661,1.31a2.136,2.136,0,0,1-1.995-.293,2.085,2.085,0,0,1-.847-1.773l.172-3.643-2.126-2.54A2.3,2.3,0,0,1,21.11,19.438Z"
     id="path2579"
     style="fill:#12274f;fill-opacity:1" />
  <circle
     cx="30"
     cy="39"
     r="4"
     id="circle2581"
     style="fill:#12274f;fill-opacity:1" />
  <circle
     cx="44"
     cy="43"
     r="4"
     id="circle2583"
     style="fill:#12274f;fill-opacity:1" />
</svg>
