<?xml version="1.0" encoding="UTF-8" standalone="no"?>
<svg
   id="Capa_1"
   enable-background="new 0 0 512 512"
   viewBox="0 0 512 512"
   version="1.1"
   sodipodi:docname="felhasznalok.svg"
   inkscape:export-filename="felhasznalok.png"
   inkscape:export-xdpi="6.5625"
   inkscape:export-ydpi="6.5625"
   inkscape:version="1.2.2 (732a01da63, 2022-12-09)"
   xmlns:inkscape="http://www.inkscape.org/namespaces/inkscape"
   xmlns:sodipodi="http://sodipodi.sourceforge.net/DTD/sodipodi-0.dtd"
   xmlns="http://www.w3.org/2000/svg"
   xmlns:svg="http://www.w3.org/2000/svg">
  <defs
     id="defs2057" />
  <sodipodi:namedview
     id="namedview2055"
     pagecolor="#ffffff"
     bordercolor="#000000"
     borderopacity="0.25"
     inkscape:showpageshadow="2"
     inkscape:pageopacity="0.0"
     inkscape:pagecheckerboard="0"
     inkscape:deskcolor="#d1d1d1"
     showgrid="false"
     inkscape:zoom="1.1103786"
     inkscape:cx="181.46963"
     inkscape:cy="257.1195"
     inkscape:window-width="1920"
     inkscape:window-height="991"
     inkscape:window-x="-9"
     inkscape:window-y="-9"
     inkscape:window-maximized="1"
     inkscape:current-layer="Capa_1" />
  <g
     id="g2022"
     style="fill:#12274f;fill-opacity:1">
    <path
       d="m137.882 271h73.1v15c0 8.28 6.72 15 15 15h60c8.28 0 15-6.72 15-15v-15h73.1c36.74 0 66.63-29.89 66.63-66.63v-66.05h15c8.28 0 15-6.72 15-15v-60c0-8.29-6.72-15-15-15h-60c-8.28 0-15 6.71-15 15v60c0 8.28 6.72 15 15 15h15v66.05c0 20.2-16.43 36.63-36.63 36.63h-73.1v-15c0-8.28-6.72-15-15-15h-60c-8.28 0-15 6.72-15 15v15h-73.1c-36.74 0-66.63 29.89-66.63 66.63v66.05h-15c-8.28 0-15 6.72-15 15v60c0 8.29 6.72 15 15 15h60c8.28 0 15-6.71 15-15v-60c0-8.28-6.72-15-15-15h-15v-66.05c0-20.2 16.43-36.63 36.63-36.63z"
       id="path2008"
       style="fill:#12274f;fill-opacity:1" />
    <path
       d="m197.102 108.32h102.01l-9.85 9.71c-5.862 5.774-5.934 15.348-.16 21.21s15.348 5.934 21.21.16l35.93-35.4c.707-.703 4.442-4.559 4.442-10.684 0-6.127-3.735-9.982-4.442-10.686l-35.93-35.39c-5.86-5.77-15.43-5.7-21.21.16-5.77 5.86-5.7 15.44.16 21.21l9.85 9.71h-102.01c-8.229 0-15 6.771-15 15s6.771 15 15 15z"
       id="path2010"
       style="fill:#12274f;fill-opacity:1" />
    <path
       d="m314.862 403.68h-102.01l9.85-9.71c5.862-5.774 5.934-15.348.16-21.21s-15.348-5.934-21.21-.16l-35.93 35.4c-5.87 5.79-5.87 15.58 0 21.37l35.93 35.39c5.86 5.77 15.43 5.7 21.21-.16 5.77-5.86 5.7-15.44-.16-21.21l-9.85-9.71h102.01c8.229 0 15-6.771 15-15s-6.772-15-15-15z"
       id="path2012"
       style="fill:#12274f;fill-opacity:1" />
    <path
       d="m157.507 198.766c9.68 0 16.729-9.179 14.226-18.526l-15.021-56.137c-6.146-22.953-26.929-38.907-50.688-38.907h-19.772-19.773c-23.759 0-44.542 15.953-50.688 38.907l-15.021 56.137c-2.503 9.346 4.546 18.526 14.226 18.526z"
       id="path2014"
       style="fill:#12274f;fill-opacity:1" />
    <ellipse
       cx="86.252"
       cy="42.598"
       rx="42.598"
       ry="42.598"
       transform="matrix(.462 -.887 .887 .462 8.618 99.405)"
       id="ellipse2016"
       style="fill:#12274f;fill-opacity:1" />
    <path
       d="m511.23 493.466-15.027-56.161c-6.148-22.963-26.941-38.924-50.71-38.924h-19.781-19.781c-23.769 0-44.561 15.96-50.71 38.924l-15.027 56.161c-2.505 9.35 4.548 18.534 14.232 18.534h142.573c9.683 0 16.735-9.183 14.231-18.534z"
       id="path2018"
       style="fill:#12274f;fill-opacity:1" />
    <path
       d="m468.328 355.765c0-23.379-19.238-42.616-42.617-42.616s-42.616 19.238-42.617 42.616 19.238 42.617 42.617 42.617 42.617-19.238 42.617-42.617z"
       id="path2020"
       style="fill:#12274f;fill-opacity:1" />
  </g>
</svg>
