<?xml version="1.0" encoding="UTF-8" standalone="no"?>
<!-- Created with Inkscape (http://www.inkscape.org/) -->

<svg
   width="262.40222"
   height="358.85443"
   viewBox="0 0 69.427258 94.946902"
   version="1.1"
   id="svg5"
   xml:space="preserve"
   inkscape:version="1.2.2 (732a01da63, 2022-12-09)"
   sodipodi:docname="logosvg.svg"
   inkscape:export-filename="prolilogo.png"
   inkscape:export-xdpi="53.50359"
   inkscape:export-ydpi="53.50359"
   xmlns:inkscape="http://www.inkscape.org/namespaces/inkscape"
   xmlns:sodipodi="http://sodipodi.sourceforge.net/DTD/sodipodi-0.dtd"
   xmlns="http://www.w3.org/2000/svg"
   xmlns:svg="http://www.w3.org/2000/svg"><sodipodi:namedview
     id="namedview7"
     pagecolor="#ffffff"
     bordercolor="#000000"
     borderopacity="0.25"
     inkscape:showpageshadow="2"
     inkscape:pageopacity="0.0"
     inkscape:pagecheckerboard="0"
     inkscape:deskcolor="#d1d1d1"
     inkscape:document-units="mm"
     showgrid="false"
     inkscape:zoom="1.6328926"
     inkscape:cx="188.92853"
     inkscape:cy="171.78105"
     inkscape:window-width="1920"
     inkscape:window-height="991"
     inkscape:window-x="-9"
     inkscape:window-y="-9"
     inkscape:window-maximized="1"
     inkscape:current-layer="layer1"
     showguides="true" /><defs
     id="defs2" /><g
     inkscape:label="ProLi Logo"
     inkscape:groupmode="layer"
     id="layer1"
     transform="translate(-19.53359,-82.129392)"><path
       style="display:inline;fill:#12274f;fill-opacity:1;stroke-width:0.264583"
       d="M 51.14674,158.20454 C 44.222401,155.3602 37.612368,150.51453 32.743341,144.71341 22.068576,131.99514 17.897758,115.08159 20.106468,93.468239 c 0.21563,-2.110052 0.450922,-4.028578 0.522867,-4.26339 0.08867,-0.289407 1.428483,-0.81814 4.15933,-1.641409 14.545021,-4.384887 25.581661,-6.064941 34.323314,-5.22487 7.03567,0.676127 16.009704,2.585651 24.606249,5.235802 l 4.101042,1.264272 0.302223,2.380943 c 3.150394,24.819103 -2.612914,44.979433 -16.526637,57.810973 -4.172024,3.84753 -9.53322,7.3113 -14.199231,9.17386 -3.212936,1.28253 -3.126934,1.28253 -6.248885,1.2e-4 z m 8.626698,-4.87329 c 6.785794,-3.38786 12.905762,-8.8937 17.132203,-15.41301 3.823468,-5.89772 6.220497,-12.33867 7.680339,-20.6375 0.523647,-2.9768 0.578974,-4.15336 0.553656,-11.77396 -0.01892,-5.690859 -0.148092,-9.282901 -0.394039,-10.956313 L 84.379687,92.060819 82.924478,91.56086 C 77.191256,89.591119 67.604905,87.281513 61.625521,86.42937 53.825779,85.317805 45.057154,86.145191 34.241145,89.013293 c -3.387603,0.898297 -9.857703,2.850798 -10.038268,3.029281 -0.36762,0.363373 -0.828095,5.863571 -0.972166,11.612116 -0.23545,9.39466 0.524989,15.40845 2.843792,22.48959 4.390604,13.40799 14.391155,24.27286 26.552666,28.84755 l 1.584981,0.59621 1.854602,-0.66606 c 1.020032,-0.36633 2.68804,-1.08216 3.706686,-1.59073 z"
       id="path302"
       sodipodi:nodetypes="csssssscsssccsscscscssssscsc"
       inkscape:label="kulsokeret" /><path
       id="path5447"
       style="display:inline;fill:#12274f;fill-opacity:1;stroke-width:0.259192"
       inkscape:label="belso"
       d="m 53.563037,87.654636 c -5.790121,0.06478 -11.564257,1.015029 -18.394226,2.815849 -3.323404,0.876263 -9.154427,2.688542 -9.399426,2.921269 -0.108913,0.103462 -0.383019,1.930488 -0.609265,4.0597 -0.567143,5.337386 -0.37353,15.259996 0.383956,19.682006 1.982319,11.5722 6.235057,20.16085 13.419336,27.10067 4.190434,4.04785 8.108148,6.62946 13.179557,8.68474 l 2.070675,0.83922 1.558044,-0.58704 c 2.447165,-0.92151 5.527409,-2.54724 8.051705,-4.25039 11.081132,-7.47646 17.827197,-19.5484 19.574516,-35.02732 0.554503,-4.91216 0.349796,-14.221422 -0.430982,-19.597249 L 82.812415,93.23104 78.253003,91.869883 C 68.478383,88.95189 61.00748,87.571346 53.563037,87.654636 Z M 49.615992,103.5255 H 58.5679 c 0.247205,0 0.447518,0.20083 0.447518,0.44804 v 0.89503 c 0.0042,0.0235 0,0.89504 0,0.89504 v 0.89555 c 0,0.24721 -0.200313,0.44752 -0.447518,0.44752 h -2.685624 v 2.23811 c 0,0.2472 -0.257728,0.28912 -0.447518,0.44751 h -0.673344 l 0.192236,13.96297 c 3.587994,0.36061 6.319557,3.38059 6.319511,6.98666 -4.62e-4,0.47159 -0.04763,0.94222 -0.14056,1.40456 h 4.35374 c 0.208701,0.005 0.40393,0.10281 0.5333,0.26665 l 1.573031,1.96578 c 0.224908,-0.0827 0.462654,-0.12515 0.702283,-0.12609 1.876813,0 2.816261,2.26869 1.489315,3.59564 -1.326948,1.32695 -3.596163,0.38749 -3.596163,-1.48931 -7.63e-4,-0.39091 0.11138,-0.77358 0.322977,-1.10226 l -1.36219,-1.70636 h -4.465361 c -0.36032,0.82287 -0.875217,1.56897 -1.516703,2.1978 v 5.18883 l 1.705839,1.36219 c 0.328684,-0.2116 0.711869,-0.32375 1.102775,-0.32297 1.876813,0 2.81626,2.26921 1.489315,3.59616 -1.326948,1.32695 -3.596163,0.3875 -3.596163,-1.48932 9.16e-4,-0.23963 0.04391,-0.47737 0.126607,-0.70228 l -1.966288,-1.55908 c -0.167633,-0.13246 -0.265631,-0.3336 -0.266651,-0.54725 v -4.42402 c -0.861702,0.49819 -1.818669,0.80952 -2.808614,0.91312 v 7.14789 c 2.234323,0.78995 1.663548,4.09174 -0.702282,4.09174 -2.365831,0 -2.936606,-3.30179 -0.702283,-4.09174 v -7.14789 c -0.992586,-0.11439 -1.949711,-0.43777 -2.808614,-0.94826 v 4.45916 c -0.0052,0.2087 -0.102802,0.40393 -0.266651,0.5333 l -1.966288,1.57303 c 0.0827,0.22491 0.125666,0.46265 0.126607,0.70228 0,1.87682 -2.269215,2.81627 -3.596163,1.48932 -1.326946,-1.32695 -0.386981,-3.59616 1.489832,-3.59616 0.390906,-7.7e-4 0.773574,0.11137 1.102258,0.32297 l 1.706356,-1.36219 v -5.18883 c -0.641486,-0.62883 -1.156384,-1.37493 -1.516703,-2.1978 h -4.465878 l -1.36219,1.70636 c 0.211597,0.32868 0.323749,0.71135 0.322977,1.10226 0,1.8768 -2.268699,2.81626 -3.595646,1.48931 -1.326946,-1.32695 -0.387499,-3.59564 1.489315,-3.59564 0.239629,9.1e-4 0.477375,0.0434 0.702283,0.12609 l 1.558561,-1.93064 c 0.132461,-0.16763 0.334122,-0.26563 0.54777,-0.26665 h 4.353223 c -0.09293,-0.46234 -0.140098,-0.93297 -0.14056,-1.40456 -0.01814,-3.61951 2.718103,-6.65989 6.319511,-7.0218 V 109.7923 h -0.799951 c -0.247205,0 -0.447518,-0.20031 -0.447518,-0.44751 v -2.23811 h -2.685624 c -0.247204,0 -0.448035,-0.20031 -0.448035,-0.44752 v -0.89555 -0.89504 -0.89503 c 0,-0.24721 0.200831,-0.44804 0.448035,-0.44804 z m 3.933093,6.2668 h 0.09508 1.117245 l -10e-4,-0.093 -1.211295,0.0274 z m -3.485576,-5.37125 v 1.79008 h 2.685625 c 0.247204,0 0.447518,0.20083 0.447518,0.44803 v 2.23759 h 1.790588 v -2.23759 c 0,-0.2472 0.200313,-0.44803 0.447518,-0.44803 h 2.685624 v -1.79008 z m 4.187859,20.70365 c -5.004836,0 -7.510376,6.05055 -3.971851,9.58908 3.538525,3.53853 9.589079,1.03298 9.589079,-3.97185 0,-3.10236 -2.514875,-5.61723 -5.617228,-5.61723 z m -14.065809,10.53114 c -0.166889,0.004 -0.33565,0.0685 -0.473872,0.20671 -0.442316,0.44231 -0.128995,1.19889 0.49661,1.19889 0.387794,0 0.702283,-0.31449 0.702283,-0.70228 0,-0.43011 -0.357862,-0.71253 -0.725021,-0.70332 z m 28.109396,10e-4 c -0.625606,0 -0.938926,0.75658 -0.496611,1.1989 0.442316,0.44231 1.198377,0.12899 1.198377,-0.49661 0,-0.3878 -0.313973,-0.70229 -0.701766,-0.70229 z m -21.789885,7.72305 c -0.16689,0.004 -0.335649,0.0685 -0.473873,0.2067 -0.442314,0.44232 -0.128993,1.19838 0.496611,1.19838 0.387795,0 0.701766,-0.31397 0.701766,-0.70177 0,-0.4301 -0.357346,-0.71252 -0.724504,-0.70331 z m 15.470374,0.001 c -0.387795,0 -0.702283,0.31449 -0.702283,0.70228 0,0.62561 0.756061,0.93841 1.198377,0.4961 0.442314,-0.44232 0.129511,-1.19838 -0.496094,-1.19838 z m -7.746297,2.80758 c -0.16689,0.004 -0.336166,0.0685 -0.47439,0.20671 -0.442316,0.44231 -0.128994,1.19889 0.496611,1.19889 0.387794,0 0.702282,-0.31449 0.702282,-0.70228 0,-0.43011 -0.357346,-0.71253 -0.724503,-0.70332 z" /><g
       id="g5600"
       transform="matrix(0.04915357,0,0,0.04915357,25.121591,93.855707)"
       inkscape:label="lista"
       style="display:inline;fill:#ffffff;fill-opacity:1;stroke:#ffffff;stroke-width:7.53591;stroke-dasharray:none;stroke-opacity:1;paint-order:stroke fill markers"><path
         id="path5592"
         style="display:inline;fill:#ffffff;fill-opacity:1;stroke:#ffffff;stroke-width:12.2066;stroke-dasharray:none;stroke-opacity:1;paint-order:stroke fill markers"
         inkscape:label="keret"
         d="m 71,92.383511 c 0,-6.949779 5.159,-12.604078 11.5,-12.604078 h 36.687 v 13.052345 c 0,16.195692 12.022,29.372982 26.8,29.372982 14.778,0 26.8,-13.17619 26.8,-29.372982 V 79.779433 H 229.2 v 13.052345 c 0,16.195692 12.022,29.372982 26.8,29.372982 14.778,0 26.8,-13.17619 26.8,-29.372982 V 79.779433 h 56.413 v 13.052345 c 0,16.195692 12.022,29.372982 26.8,29.372982 14.777,0 26.8,-13.17619 26.8,-29.372982 V 79.779433 H 429.5 c 6.341,0 11.5,5.654299 11.5,12.604078 L 441.24315,455.26858 441,532.11131 c 0,6.94978 -5.159,12.60408 -11.5,12.60408 h -347 c -6.341,0 -11.5,-5.6543 -11.5,-12.60408 V 152.68361 Z M 56,532.11131 c 0,16.01486 11.888,29.04418 26.5,29.04418 h 347 c 14.612,0 26.5,-13.02932 26.5,-29.04418 L 455.88018,457.81933 456,92.383511 C 456.0109,76.368664 444.112,63.33933 429.5,63.33933 H 392.812 V 51.918832 c 0,-16.195693 -12.022,-29.372983 -26.8,-29.372983 -14.778,0 -26.8,13.176194 -26.8,29.372983 V 63.33933 H 282.8 V 51.918832 c 0,-16.196789 -12.023,-29.372983 -26.8,-29.372983 -14.777,0 -26.8,13.176194 -26.8,29.372983 V 63.33933 H 172.787 V 51.918832 c 0,-16.195693 -12.022,-29.372983 -26.8,-29.372983 -14.777,0 -26.8,13.176194 -26.8,29.372983 V 63.33933 H 82.5 C 67.888,63.33933 56,76.36866 56,92.383511 V 152.68361 Z M 157.788,92.831778 c 0,7.131717 -5.293,12.932882 -11.8,12.932882 -6.506,0 -11.8,-5.801165 -11.8,-12.932882 V 51.918832 c 0,-7.131716 5.293,-12.932881 11.8,-12.932881 6.507,0 11.8,5.801165 11.8,12.932881 z m 110.012,0 c 0,7.131717 -5.293,12.932882 -11.8,12.932882 -6.507,0 -11.8,-5.801165 -11.8,-12.932882 V 51.918832 c 0,-7.131716 5.293,-12.932881 11.8,-12.932881 6.507,0 11.8,5.801165 11.8,12.932881 z m 110.013,0 c 0,7.131717 -5.293,12.932882 -11.8,12.932882 -6.507,0 -11.8,-5.801165 -11.8,-12.932882 V 51.918832 c 0,-7.131716 5.293,-12.932881 11.8,-12.932881 6.506,0 11.8,5.801165 11.8,12.932881 z"
         sodipodi:nodetypes="sscsssccsssccssscsscsssscssssscsscsssccsssccssscsscssssssssssssssssssssss" /><g
         id="g5626"
         inkscape:label="1"
         style="fill:#ffffff;fill-opacity:1;stroke:#ffffff;stroke-width:7.53591;stroke-dasharray:none;stroke-opacity:1;paint-order:stroke fill markers"><path
           d="m 143.194,218.977 46.751,-56.244 c 2.648,-3.186 2.212,-7.914 -0.974,-10.562 -3.184,-2.647 -7.914,-2.211 -10.562,0.974 l -40.074,48.211 -8.759,-14.228 c -2.171,-3.527 -6.79,-4.628 -10.319,-2.455 -3.527,2.172 -4.626,6.792 -2.455,10.318 l 14.236,23.123 c 2.692,4.37 8.878,4.807 12.156,0.863 z"
           id="path5584"
           style="fill:#ffffff;fill-opacity:1;stroke:#ffffff;stroke-width:12.2066;stroke-dasharray:none;stroke-opacity:1;paint-order:stroke fill markers" /></g><g
         id="g5622"
         inkscape:label="2"
         style="fill:#ffffff;fill-opacity:1;stroke:#ffffff;stroke-width:7.53591;stroke-dasharray:none;stroke-opacity:1;paint-order:stroke fill markers"><path
           d="m 116.804,293.991 14.236,23.123 c 2.69,4.37 8.876,4.807 12.154,0.862 l 46.751,-56.244 c 2.648,-3.186 2.212,-7.914 -0.974,-10.562 -3.184,-2.647 -7.914,-2.212 -10.562,0.974 l -40.074,48.211 -8.759,-14.228 c -2.171,-3.527 -6.79,-4.628 -10.319,-2.455 -3.526,2.173 -4.625,6.793 -2.453,10.319 z"
           id="path5586"
           style="fill:#ffffff;fill-opacity:1;stroke:#ffffff;stroke-width:12.2066;stroke-dasharray:none;stroke-opacity:1;paint-order:stroke fill markers" /></g><g
         id="g5618"
         inkscape:label="3"
         style="fill:#ffffff;fill-opacity:1;stroke:#ffffff;stroke-width:7.53591;stroke-dasharray:none;stroke-opacity:1;paint-order:stroke fill markers"><path
           d="m 116.804,393.658 14.236,23.123 c 2.69,4.37 8.876,4.807 12.154,0.862 l 46.751,-56.244 c 2.648,-3.186 2.212,-7.914 -0.974,-10.562 -3.184,-2.647 -7.914,-2.212 -10.562,0.974 l -40.074,48.211 -8.759,-14.228 c -2.171,-3.527 -6.79,-4.627 -10.319,-2.455 -3.526,2.173 -4.625,6.793 -2.453,10.319 z"
           id="path5588"
           inkscape:label="path5588"
           style="fill:#ffffff;fill-opacity:1;stroke:#ffffff;stroke-width:12.2066;stroke-dasharray:none;stroke-opacity:1;paint-order:stroke fill markers" /><path
           style="fill:#ffffff;fill-opacity:1;stroke:#ffffff;stroke-width:19.378;stroke-linecap:round;stroke-linejoin:round;stroke-dasharray:none;stroke-dashoffset:142.11;stroke-opacity:1;paint-order:stroke fill markers"
           d="M 227.76139,389.78493 H 395.681"
           id="path5786" /><path
           style="display:inline;fill:#ffffff;fill-opacity:1;stroke:#ffffff;stroke-width:19.378;stroke-linecap:round;stroke-linejoin:round;stroke-dasharray:none;stroke-dashoffset:142.11;stroke-opacity:1;paint-order:stroke fill markers"
           d="M 227.76139,283.06154 H 395.681"
           id="path5789" /><path
           style="display:inline;fill:#ffffff;fill-opacity:1;stroke:#ffffff;stroke-width:19.378;stroke-linecap:round;stroke-linejoin:round;stroke-dasharray:none;stroke-dashoffset:142.11;stroke-opacity:1;paint-order:stroke fill markers"
           d="M 227.76139,184.9914 H 395.681"
           id="path5795" /></g></g><g
       id="g5817"
       transform="matrix(0.04915357,0,0,0.04915357,58.233767,93.855707)"
       inkscape:label="listajobb"
       style="display:inline;fill:#ffffff;fill-opacity:1;stroke:#ffffff;stroke-width:7.53591;stroke-dasharray:none;stroke-opacity:1;paint-order:stroke fill markers"><path
         id="path5797"
         style="display:inline;fill:#ffffff;fill-opacity:1;stroke:#ffffff;stroke-width:12.2066;stroke-dasharray:none;stroke-opacity:1;paint-order:stroke fill markers"
         inkscape:label="keret"
         d="m 71,92.383511 c 0,-6.949779 5.159,-12.604078 11.5,-12.604078 h 36.687 v 13.052345 c 0,16.195692 12.022,29.372982 26.8,29.372982 14.778,0 26.8,-13.17619 26.8,-29.372982 V 79.779433 H 229.2 v 13.052345 c 0,16.195692 12.022,29.372982 26.8,29.372982 14.778,0 26.8,-13.17619 26.8,-29.372982 V 79.779433 h 56.413 v 13.052345 c 0,16.195692 12.022,29.372982 26.8,29.372982 14.777,0 26.8,-13.17619 26.8,-29.372982 V 79.779433 H 429.5 c 6.341,0 11.5,5.654299 11.5,12.604078 L 441.24315,455.26858 441,532.11131 c 0,6.94978 -5.159,12.60408 -11.5,12.60408 h -347 c -6.341,0 -11.5,-5.6543 -11.5,-12.60408 V 152.68361 Z M 56,532.11131 c 0,16.01486 11.888,29.04418 26.5,29.04418 h 347 c 14.612,0 26.5,-13.02932 26.5,-29.04418 L 455.88018,457.81933 456,92.383511 C 456.0109,76.368664 444.112,63.33933 429.5,63.33933 H 392.812 V 51.918832 c 0,-16.195693 -12.022,-29.372983 -26.8,-29.372983 -14.778,0 -26.8,13.176194 -26.8,29.372983 V 63.33933 H 282.8 V 51.918832 c 0,-16.196789 -12.023,-29.372983 -26.8,-29.372983 -14.777,0 -26.8,13.176194 -26.8,29.372983 V 63.33933 H 172.787 V 51.918832 c 0,-16.195693 -12.022,-29.372983 -26.8,-29.372983 -14.777,0 -26.8,13.176194 -26.8,29.372983 V 63.33933 H 82.5 C 67.888,63.33933 56,76.36866 56,92.383511 V 152.68361 Z M 157.788,92.831778 c 0,7.131717 -5.293,12.932882 -11.8,12.932882 -6.506,0 -11.8,-5.801165 -11.8,-12.932882 V 51.918832 c 0,-7.131716 5.293,-12.932881 11.8,-12.932881 6.507,0 11.8,5.801165 11.8,12.932881 z m 110.012,0 c 0,7.131717 -5.293,12.932882 -11.8,12.932882 -6.507,0 -11.8,-5.801165 -11.8,-12.932882 V 51.918832 c 0,-7.131716 5.293,-12.932881 11.8,-12.932881 6.507,0 11.8,5.801165 11.8,12.932881 z m 110.013,0 c 0,7.131717 -5.293,12.932882 -11.8,12.932882 -6.507,0 -11.8,-5.801165 -11.8,-12.932882 V 51.918832 c 0,-7.131716 5.293,-12.932881 11.8,-12.932881 6.506,0 11.8,5.801165 11.8,12.932881 z"
         sodipodi:nodetypes="sscsssccsssccssscsscsssscssssscsscsssccsssccssscsscssssssssssssssssssssss" /><g
         id="g5801"
         inkscape:label="1"
         style="fill:#ffffff;fill-opacity:1;stroke:#ffffff;stroke-width:12.2066;stroke-dasharray:none;stroke-opacity:1;paint-order:stroke fill markers"><path
           d="m 143.194,218.977 46.751,-56.244 c 2.648,-3.186 2.212,-7.914 -0.974,-10.562 -3.184,-2.647 -7.914,-2.211 -10.562,0.974 l -40.074,48.211 -8.759,-14.228 c -2.171,-3.527 -6.79,-4.628 -10.319,-2.455 -3.527,2.172 -4.626,6.792 -2.455,10.318 l 14.236,23.123 c 2.692,4.37 8.878,4.807 12.156,0.863 z"
           id="path5799"
           style="fill:#ffffff;fill-opacity:1;stroke:#ffffff;stroke-width:12.2066;stroke-dasharray:none;stroke-opacity:1;paint-order:stroke fill markers" /></g><g
         id="g5805"
         inkscape:label="2"
         style="fill:#ffffff;fill-opacity:1;stroke:#ffffff;stroke-width:12.2066;stroke-dasharray:none;stroke-opacity:1;paint-order:stroke fill markers"><path
           d="m 116.804,293.991 14.236,23.123 c 2.69,4.37 8.876,4.807 12.154,0.862 l 46.751,-56.244 c 2.648,-3.186 2.212,-7.914 -0.974,-10.562 -3.184,-2.647 -7.914,-2.212 -10.562,0.974 l -40.074,48.211 -8.759,-14.228 c -2.171,-3.527 -6.79,-4.628 -10.319,-2.455 -3.526,2.173 -4.625,6.793 -2.453,10.319 z"
           id="path5803"
           style="fill:#ffffff;fill-opacity:1;stroke:#ffffff;stroke-width:12.2066;stroke-dasharray:none;stroke-opacity:1;paint-order:stroke fill markers" /></g><g
         id="g5815"
         inkscape:label="3"
         style="fill:#ffffff;fill-opacity:1;stroke:#ffffff;stroke-width:7.53591;stroke-dasharray:none;stroke-opacity:1;paint-order:stroke fill markers"><path
           d="m 116.804,393.658 14.236,23.123 c 2.69,4.37 8.876,4.807 12.154,0.862 l 46.751,-56.244 c 2.648,-3.186 2.212,-7.914 -0.974,-10.562 -3.184,-2.647 -7.914,-2.212 -10.562,0.974 l -40.074,48.211 -8.759,-14.228 c -2.171,-3.527 -6.79,-4.627 -10.319,-2.455 -3.526,2.173 -4.625,6.793 -2.453,10.319 z"
           id="path5807"
           inkscape:label="path5588"
           style="fill:#ffffff;fill-opacity:1;stroke:#ffffff;stroke-width:12.2066;stroke-dasharray:none;stroke-opacity:1;paint-order:stroke fill markers" /><path
           style="fill:#ffffff;fill-opacity:1;stroke:#ffffff;stroke-width:19.378;stroke-linecap:round;stroke-linejoin:round;stroke-dasharray:none;stroke-dashoffset:142.11;stroke-opacity:1;paint-order:stroke fill markers"
           d="M 227.76139,389.78493 H 395.681"
           id="path5809" /><path
           style="display:inline;fill:#ffffff;fill-opacity:1;stroke:#ffffff;stroke-width:19.378;stroke-linecap:round;stroke-linejoin:round;stroke-dasharray:none;stroke-dashoffset:142.11;stroke-opacity:1;paint-order:stroke fill markers"
           d="M 227.76139,283.06154 H 395.681"
           id="path5811" /><path
           style="display:inline;fill:#ffffff;fill-opacity:1;stroke:#ffffff;stroke-width:19.378;stroke-linecap:round;stroke-linejoin:round;stroke-dasharray:none;stroke-dashoffset:142.11;stroke-opacity:1;paint-order:stroke fill markers"
           d="M 227.76139,184.9914 H 395.681"
           id="path5813" /></g></g><path
       style="fill:#ffffff;fill-opacity:1;stroke:#ffffff;stroke-width:0.9525;stroke-linecap:round;stroke-linejoin:round;stroke-dasharray:none;stroke-dashoffset:142.11;stroke-opacity:1;paint-order:stroke fill markers"
       d="M 61.090832,105.33583 H 58.870944"
       id="path5823"
       sodipodi:nodetypes="cc" /><path
       style="fill:#ffffff;fill-opacity:1;stroke:#ffffff;stroke-width:0.9525;stroke-linecap:round;stroke-linejoin:round;stroke-dasharray:none;stroke-dashoffset:142.11;stroke-opacity:1;paint-order:stroke fill markers"
       d="M 49.361216,105.33583 H 47.141328"
       id="path5819"
       sodipodi:nodetypes="cc" /><text
       xml:space="preserve"
       style="font-weight:bold;font-size:26.2877px;font-family:Arial;-inkscape-font-specification:'Arial Bold';fill:#12274f;stroke-width:1.47869;stroke-linecap:round;stroke-linejoin:round;stroke-dashoffset:142.11;paint-order:stroke fill markers"
       x="17.391052"
       y="154.59814"
       id="text356"
       inkscape:label="ProLi"><text
         xml:space="preserve"
         style="font-style:normal;font-variant:normal;font-weight:bold;font-stretch:normal;font-size:26.4411px;font-family:Montserrat;-inkscape-font-specification:'Montserrat Bold';fill:#12274f;stroke-width:1.48731;stroke-linecap:round;stroke-linejoin:round;stroke-dashoffset:142.11;paint-order:stroke fill markers"
         x="17.339991"
         y="176.86476"
         id="text468"><tspan
           sodipodi:role="line"
           id="tspan466"
           style="stroke-width:1.48731"
           x="17.339991"
           y="176.86476">ProLi </tspan></text><text
         xml:space="preserve"
         style="font-style:normal;font-variant:normal;font-weight:bold;font-stretch:normal;font-size:26.4411px;font-family:Montserrat;-inkscape-font-specification:'Montserrat Bold';fill:#12274f;stroke-width:1.48731;stroke-linecap:round;stroke-linejoin:round;stroke-dashoffset:142.11;paint-order:stroke fill markers"
         x="17.339991"
         y="176.86476"
         id="text412" /></text></g></svg>
